HIERARCHY
ROOT hip
{
	OFFSET 0.000000 0.000000 0.000000
	CHANNELS 6 Xposition Yposition Zposition Xrotation Zrotation Yrotation 
	JOINT abdomen
	{
		OFFSET 0.000000 3.422050 0.000000
		CHANNELS 3 Xrotation Zrotation Yrotation 
		JOINT chest
		{
			OFFSET 0.000000 8.486693 -0.6844110
			CHANNELS 3 Xrotation Zrotation Yrotation 
			JOINT neck
			{
				OFFSET 0.000000 10.26616 -0.2737640
				CHANNELS 3 Xrotation Zrotation Yrotation 
				JOINT head
				{
					OFFSET 0.000000 3.148285 0.000000
					CHANNELS 3 Xrotation Zrotation Yrotation 
					End Site
					{
						OFFSET 0.000000 3.148289 0.000000
					}
				}
			}
			JOINT lCollar
			{
				OFFSET 3.422053 6.707223 -0.8212930
				CHANNELS 3 Yrotation Zrotation Xrotation 
				JOINT lShldr
				{
					OFFSET 3.285171 0.000000 0.000000
					CHANNELS 3 Zrotation Yrotation Xrotation 
					JOINT lForeArm
					{
						OFFSET 10.12928 0.000000 0.000000
						CHANNELS 3 Yrotation Zrotation Xrotation 
						JOINT lHand
						{
							OFFSET 8.486692 0.000000 0.000000
							CHANNELS 3 Zrotation Yrotation Xrotation 
							End Site
							{
								OFFSET 4.106464 0.000000 0.000000
							}
						}
					}
				}
			}
			JOINT rCollar
			{
				OFFSET -3.558935 6.707223 -0.8212930
				CHANNELS 3 Yrotation Zrotation Xrotation 
				JOINT rShldr
				{
					OFFSET -3.148289 0.000000 0.000000
					CHANNELS 3 Zrotation Yrotation Xrotation 
					JOINT rForeArm
					{
						OFFSET -10.26616 0.000000 0.000000
						CHANNELS 3 Yrotation Zrotation Xrotation 
						JOINT rHand
						{
							OFFSET -8.349810 0.000000 0.000000
							CHANNELS 3 Zrotation Yrotation Xrotation 
							End Site
							{
								OFFSET -4.106464 0.000000 0.000000
							}
						}
					}
				}
			}
		}
	}
	JOINT lThigh
	{
		OFFSET 5.338403 -1.642589 1.368821
		CHANNELS 3 Xrotation Zrotation Yrotation 
		JOINT lShin
		{
			OFFSET -2.053232 -20.12167 0.000000
			CHANNELS 3 Xrotation Zrotation Yrotation 
			JOINT lFoot
			{
				OFFSET 0.000000 -19.30038 -1.231939
				CHANNELS 3 Xrotation Yrotation Zrotation 
				End Site
				{
					OFFSET 0.000000 -2.463878 4.653993
				}
			}
		}
	}
	JOINT rThigh
	{
		OFFSET -5.338403 -1.642589 1.368821
		CHANNELS 3 Xrotation Zrotation Yrotation 
		JOINT rShin
		{
			OFFSET 2.053232 -20.12167 0.000000
			CHANNELS 3 Xrotation Zrotation Yrotation 
			JOINT rFoot
			{
				OFFSET 0.000000 -19.30038 -1.231939
				CHANNELS 3 Xrotation Yrotation Zrotation 
				End Site
				{
					OFFSET 0.000000 -2.463878 4.653993
				}
			}
		}
	}
}
MOTION
Frames:	16
Frame Time:	0.03333333
-0.4000000 40.00000 8.400000 1.000000 0.000000 0.000000 -13.00000 -0.9333333 0.000000 -6.466667 0.000000 0.000000 17.80000 0.9333333 0.000000 1.000000 0.000000 0.000000 0.000000 0.000000 1.000000 -41.00000 0.000000 0.000000 -90.00000 -75.00000 0.000000 29.00000 0.000000 0.000000 0.000000 0.000000 1.000000 41.00000 0.000000 0.000000 90.00000 75.00000 0.000000 -29.00000 0.000000 0.000000 0.000000 10.46667 0.000000 24.26667 0.000000 0.000000 -13.00000 0.000000 0.000000 -0.9333333 -9.333333 0.000000 26.00000 0.000000 0.000000 -13.00000 0.000000 0.000000 
-0.8000000 40.00000 7.800000 1.000000 0.000000 0.000000 -12.00000 -1.866667 0.000000 -5.933333 0.000000 0.000000 16.60000 1.866667 0.000000 1.000000 0.000000 0.000000 0.000000 0.000000 1.000000 -41.00000 0.000000 0.000000 -90.00000 -75.00000 0.000000 29.00000 0.000000 0.000000 0.000000 0.000000 1.000000 41.00000 0.000000 0.000000 90.00000 75.00000 0.000000 -29.00000 0.000000 0.000000 0.000000 10.93333 0.000000 22.53333 0.000000 0.000000 -13.00000 0.000000 0.000000 -1.866667 -8.666667 0.000000 26.00000 0.000000 0.000000 -13.00000 0.000000 0.000000 
-1.200000 40.00000 7.200000 1.000000 0.000000 0.000000 -11.00000 -2.800000 0.000000 -5.400000 0.000000 0.000000 15.40000 2.800000 0.000000 1.000000 0.000000 0.000000 0.000000 0.000000 1.000000 -41.00000 0.000000 0.000000 -90.00000 -75.00000 0.000000 29.00000 0.000000 0.000000 0.000000 0.000000 1.000000 41.00000 0.000000 0.000000 90.00000 75.00000 0.000000 -29.00000 0.000000 0.000000 0.000000 11.40000 0.000000 20.80000 0.000000 0.000000 -13.00000 0.000000 0.000000 -2.800000 -8.000000 0.000000 26.00000 0.000000 0.000000 -13.00000 0.000000 0.000000 
-1.600000 40.00000 6.600000 1.000000 0.000000 0.000000 -10.00000 -3.733333 0.000000 -4.866667 0.000000 0.000000 14.20000 3.733333 0.000000 1.000000 0.000000 0.000000 0.000000 0.000000 1.000000 -41.00000 0.000000 0.000000 -90.00000 -75.00000 0.000000 29.00000 0.000000 0.000000 0.000000 0.000000 1.000000 41.00000 0.000000 0.000000 90.00000 75.00000 0.000000 -29.00000 0.000000 0.000000 0.000000 11.86667 0.000000 19.06667 0.000000 0.000000 -13.00000 0.000000 0.000000 -3.733333 -7.333333 0.000000 26.00000 0.000000 0.000000 -13.00000 0.000000 0.000000 
-2.000000 40.00000 6.000000 1.000000 0.000000 0.000000 -9.000000 -4.666667 0.000000 -4.333333 0.000000 0.000000 13.00000 4.666667 0.000000 1.000000 0.000000 0.000000 0.000000 0.000000 1.000000 -41.00000 0.000000 0.000000 -90.00000 -75.00000 0.000000 29.00000 0.000000 0.000000 0.000000 0.000000 1.000000 41.00000 0.000000 0.000000 90.00000 75.00000 0.000000 -29.00000 0.000000 0.000000 0.000000 12.33333 0.000000 17.33333 0.000000 0.000000 -13.00000 0.000000 0.000000 -4.666667 -6.666667 0.000000 26.00000 0.000000 0.000000 -13.00000 0.000000 0.000000 
-2.400000 40.00000 5.400000 1.000000 0.000000 0.000000 -8.000000 -5.600000 0.000000 -3.800000 0.000000 0.000000 11.80000 5.600000 0.000000 1.000000 0.000000 0.000000 0.000000 0.000000 1.000000 -41.00000 0.000000 0.000000 -90.00000 -75.00000 0.000000 29.00000 0.000000 0.000000 0.000000 0.000000 1.000000 41.00000 0.000000 0.000000 90.00000 75.00000 0.000000 -29.00000 0.000000 0.000000 0.000000 12.80000 0.000000 15.60000 0.000000 0.000000 -13.00000 0.000000 0.000000 -5.600000 -6.000000 0.000000 26.00000 0.000000 0.000000 -13.00000 0.000000 0.000000 
-2.800000 40.00000 4.800000 1.000000 0.000000 0.000000 -7.000000 -6.533333 0.000000 -3.266667 0.000000 0.000000 10.60000 6.533333 0.000000 1.000000 0.000000 0.000000 0.000000 0.000000 1.000000 -41.00000 0.000000 0.000000 -90.00000 -75.00000 0.000000 29.00000 0.000000 0.000000 0.000000 0.000000 1.000000 41.00000 0.000000 0.000000 90.00000 75.00000 0.000000 -29.00000 0.000000 0.000000 0.000000 13.26667 0.000000 13.86667 0.000000 0.000000 -13.00000 0.000000 0.000000 -6.533333 -5.333333 0.000000 26.00000 0.000000 0.000000 -13.00000 0.000000 0.000000 
-3.200000 40.00000 4.200000 1.000000 0.000000 0.000000 -6.000000 -7.466667 0.000000 -2.733333 0.000000 0.000000 9.400000 7.466667 0.000000 1.000000 0.000000 0.000000 0.000000 0.000000 1.000000 -41.00000 0.000000 0.000000 -90.00000 -75.00000 0.000000 29.00000 0.000000 0.000000 0.000000 0.000000 1.000000 41.00000 0.000000 0.000000 90.00000 75.00000 0.000000 -29.00000 0.000000 0.000000 0.000000 13.73333 0.000000 12.13333 0.000000 0.000000 -13.00000 0.000000 0.000000 -7.466667 -4.666667 0.000000 26.00000 0.000000 0.000000 -13.00000 0.000000 0.000000 
-3.600000 40.00000 3.600000 1.000000 0.000000 0.000000 -5.000000 -8.400000 0.000000 -2.200000 0.000000 0.000000 8.200000 8.400000 0.000000 1.000000 0.000000 0.000000 0.000000 0.000000 1.000000 -41.00000 0.000000 0.000000 -90.00000 -75.00000 0.000000 29.00000 0.000000 0.000000 0.000000 0.000000 1.000000 41.00000 0.000000 0.000000 90.00000 75.00000 0.000000 -29.00000 0.000000 0.000000 0.000000 14.20000 0.000000 10.40000 0.000000 0.000000 -13.00000 0.000000 0.000000 -8.400000 -4.000000 0.000000 26.00000 0.000000 0.000000 -13.00000 0.000000 0.000000 
-4.000000 40.00000 3.000000 1.000000 0.000000 0.000000 -4.000000 -9.333333 0.000000 -1.666667 0.000000 0.000000 7.000000 9.333333 0.000000 1.000000 0.000000 0.000000 0.000000 0.000000 1.000000 -41.00000 0.000000 0.000000 -90.00000 -75.00000 0.000000 29.00000 0.000000 0.000000 0.000000 0.000000 1.000000 41.00000 0.000000 0.000000 90.00000 75.00000 0.000000 -29.00000 0.000000 0.000000 0.000000 14.66667 0.000000 8.666667 0.000000 0.000000 -13.00000 0.000000 0.000000 -9.333333 -3.333333 0.000000 26.00000 0.000000 0.000000 -13.00000 0.000000 0.000000 
-4.400000 40.00000 2.400000 1.000000 0.000000 0.000000 -3.000000 -10.26667 0.000000 -1.133333 0.000000 0.000000 5.800000 10.26667 0.000000 1.000000 0.000000 0.000000 0.000000 0.000000 1.000000 -41.00000 0.000000 0.000000 -90.00000 -75.00000 0.000000 29.00000 0.000000 0.000000 0.000000 0.000000 1.000000 41.00000 0.000000 0.000000 90.00000 75.00000 0.000000 -29.00000 0.000000 0.000000 0.000000 15.13333 0.000000 6.933333 0.000000 0.000000 -13.00000 0.000000 0.000000 -10.26667 -2.666667 0.000000 26.00000 0.000000 0.000000 -13.00000 0.000000 0.000000 
-4.800000 40.00000 1.800000 1.000000 0.000000 0.000000 -2.000000 -11.20000 0.000000 -0.6000000 0.000000 0.000000 4.600000 11.20000 0.000000 1.000000 0.000000 0.000000 0.000000 0.000000 1.000000 -41.00000 0.000000 0.000000 -90.00000 -75.00000 0.000000 29.00000 0.000000 0.000000 0.000000 0.000000 1.000000 41.00000 0.000000 0.000000 90.00000 75.00000 0.000000 -29.00000 0.000000 0.000000 0.000000 15.60000 0.000000 5.200000 0.000000 0.000000 -13.00000 0.000000 0.000000 -11.20000 -2.000000 0.000000 26.00000 0.000000 0.000000 -13.00000 0.000000 0.000000 
-5.200000 40.00000 1.200000 1.000000 0.000000 0.000000 -1.000000 -12.13333 0.000000 -0.06666667 0.000000 0.000000 3.400000 12.13333 0.000000 1.000000 0.000000 0.000000 0.000000 0.000000 1.000000 -41.00000 0.000000 0.000000 -90.00000 -75.00000 0.000000 29.00000 0.000000 0.000000 0.000000 0.000000 1.000000 41.00000 0.000000 0.000000 90.00000 75.00000 0.000000 -29.00000 0.000000 0.000000 0.000000 16.06667 0.000000 3.466667 0.000000 0.000000 -13.00000 0.000000 0.000000 -12.13333 -1.333333 0.000000 26.00000 0.000000 0.000000 -13.00000 0.000000 0.000000 
-5.600000 40.00000 0.6000000 1.000000 0.000000 0.000000 0.000000 -13.06667 0.000000 0.4666667 0.000000 0.000000 2.200000 13.06667 0.000000 1.000000 0.000000 0.000000 0.000000 0.000000 1.000000 -41.00000 0.000000 0.000000 -90.00000 -75.00000 0.000000 29.00000 0.000000 0.000000 0.000000 0.000000 1.000000 41.00000 0.000000 0.000000 90.00000 75.00000 0.000000 -29.00000 0.000000 0.000000 0.000000 16.53333 0.000000 1.733333 0.000000 0.000000 -13.00000 0.000000 0.000000 -13.06667 -0.6666667 0.000000 26.00000 0.000000 0.000000 -13.00000 0.000000 0.000000 
-6.000000 40.00000 0.000000 1.000000 0.000000 0.000000 1.000000 -14.00000 0.000000 1.000000 0.000000 0.000000 1.000000 14.00000 0.000000 1.000000 0.000000 0.000000 0.000000 0.000000 1.000000 -41.00000 0.000000 0.000000 -90.00000 -75.00000 0.000000 29.00000 0.000000 0.000000 0.000000 0.000000 1.000000 41.00000 0.000000 0.000000 90.00000 75.00000 0.000000 -29.00000 0.000000 0.000000 0.000000 17.00000 0.000000 0.000000 0.000000 0.000000 -13.00000 0.000000 0.000000 -14.00000 0.000000 0.000000 26.00000 0.000000 0.000000 -13.00000 0.000000 0.000000 
-5.600000 40.00000 -0.4000000 1.000000 0.000000 0.000000 1.866667 -13.06667 0.000000 1.000000 0.000000 0.000000 -0.2000000 13.06667 0.000000 1.000000 0.000000 0.000000 0.000000 0.000000 1.000000 -41.00000 0.000000 0.000000 -90.00000 -75.00000 0.000000 29.00000 0.000000 0.000000 0.000000 0.000000 1.000000 41.00000 0.000000 0.000000 90.00000 75.00000 0.000000 -29.00000 0.000000 0.000000 -0.9333333 16.53333 0.000000 0.6666667 0.000000 0.000000 -12.00000 0.000000 0.000000 -14.00000 -0.6666667 0.000000 24.93333 0.000000 0.000000 -12.00000 0.000000 0.000000 
